<?xml version="1.0" encoding="UTF-8"?>
<svg version="1.1" xmlns="http://www.w3.org/2000/svg" width="1000" height="1000">
<path d="M0 0 C2.05639008 1.05520946 4.11237052 2.11121755 6.16796875 3.16796875 C12.80181311 6.56351502 19.54094765 9.70278061 26.3125 12.8125 C96.38660537 45.14051479 96.38660537 45.14051479 105.37670898 68.84594727 C106.68454162 72.60881171 107.80723362 76.39841252 108.859375 80.23828125 C109.17689224 81.39103546 109.17689224 81.39103546 109.50082397 82.56707764 C112.24695173 92.61577603 114.83968164 102.70418821 117.39160156 112.80371094 C117.96237826 115.053701 118.53820107 117.30241719 119.11914062 119.54980469 C122.97391726 134.46857342 125.95990811 149.12127275 127.625 164.4375 C127.76621277 165.71069092 127.90742554 166.98388184 128.05291748 168.2956543 C129.15927209 178.29700417 130.20600931 188.30432033 131.24117279 198.3132515 C131.67961474 202.54686893 132.12147585 206.78012961 132.56298828 211.01342773 C133.09248436 216.09252843 133.62153709 221.17167382 134.14865112 226.25102234 C135.14818856 235.88105511 136.15974308 245.50965008 137.1875 255.13671875 C141.33726206 294.08937803 141.33726206 294.08937803 142.46191406 312.75097656 C142.61357534 315.24930102 142.78578057 317.74542394 142.9609375 320.2421875 C147.24347691 386.80371095 144.32616404 468.38237987 114.625 529.4375 C114.07972656 530.58605469 113.53445313 531.73460937 112.97265625 532.91796875 C107.80468185 543.08296675 100.40757943 546.74271801 89.83569336 550.40332031 C86.96448187 551.27711226 84.08444555 552.09074402 81.1875 552.875 C80.11983398 553.16793945 79.05216797 553.46087891 77.95214844 553.76269531 C-17.31558789 579.35330429 -107.76322087 561.85252975 -214.1071167 521.33190918 C-216.43566541 520.41357474 -218.76670833 519.50179667 -221.09814453 518.59082031 C-225.00006188 517.06318109 -228.89345735 515.51544936 -232.78121948 513.95214844 C-234.23063204 513.37098793 -235.68184356 512.79428864 -237.13504028 512.22265625 C-246.13432694 508.67047747 -253.71817647 504.4421803 -261.375 498.4375 C-266.41980464 495.02987724 -271.02220138 492.92635354 -277.22070312 493.87133789 C-278.18943359 494.13164795 -279.15816406 494.39195801 -280.15625 494.66015625 C-281.23801514 494.94761719 -282.31978027 495.23507812 -283.43432617 495.53125 C-285.13745972 496.01078125 -285.13745972 496.01078125 -286.875 496.5 C-288.04973877 496.82871094 -289.22447754 497.15742187 -290.43481445 497.49609375 C-305.00319704 501.66454757 -316.18404799 507.4313467 -328.78149414 515.8347168 C-336.71645657 521.10413429 -344.72694629 525.48138941 -353.375 529.4375 C-397.94188198 549.43601128 -397.94188198 549.43601128 -430.43359375 584.1171875 C-432.41470564 587.50540704 -434.52998913 590.78594823 -436.6875 594.0625 C-442.05367691 602.25390412 -446.7041493 610.83689391 -451.375 619.4375 C-453.88534628 618.47002507 -455.1285367 617.87709248 -456.46484375 615.49365234 C-456.74457031 614.67848145 -457.02429688 613.86331055 -457.3125 613.0234375 C-457.6439502 612.06002441 -457.97540039 611.09661133 -458.31689453 610.10400391 C-458.84065674 608.47470947 -458.84065674 608.47470947 -459.375 606.8125 C-459.94323486 605.06912354 -459.94323486 605.06912354 -460.52294922 603.29052734 C-487.56857749 518.39170306 -501.68864916 421.70425017 -463.95703125 265.48828125 C-461.90895795 261.53117669 -459.77382767 257.62466211 -457.61865234 253.72509766 C-456.37830046 251.44357093 -455.19167837 249.14143693 -454.01953125 246.82421875 C-449.85071586 238.61394122 -445.54439596 231.34961936 -439.375 224.4375 C-438.36373047 223.21353516 -438.36373047 223.21353516 -437.33203125 221.96484375 C-415.44716176 196.17338554 -380.17357252 183.21350701 -347.375 179.4375 C-346.44300781 179.32664062 -345.51101563 179.21578125 -344.55078125 179.1015625 C-303.37662904 174.94482681 -257.37964667 184.07111306 -223.375 208.4375 C-222.44171875 209.10007812 -221.5084375 209.76265625 -220.546875 210.4453125 C-204.71768879 222.00641971 -190.53224249 235.02890197 -178.375 250.4375 C-177.46679786 251.56693087 -176.55791595 252.69581538 -175.6484375 253.82421875 C-170.36896677 260.41490079 -165.46636183 267.07334012 -160.93359375 274.20703125 C-159.56716733 276.54016919 -159.56716733 276.54016919 -157.375 277.4375 C-154.60135687 277.69949683 -151.84186508 277.91037423 -149.0625 278.0859375 C-147.328108 278.20548281 -145.5937336 278.32528361 -143.859375 278.4453125 C-141.14408846 278.62846352 -138.428693 278.80903339 -135.71289062 278.984375 C-104.60946799 281.01336032 -104.60946799 281.01336032 -90.125 286.125 C-89.38741455 286.38063721 -88.6498291 286.63627441 -87.88989258 286.8996582 C-74.93551695 291.59266438 -64.4176708 299.14011089 -54.375 308.4375 C-53.85131836 308.91735352 -53.32763672 309.39720703 -52.78808594 309.89160156 C-36.77817839 324.71191846 -26.58187865 343.61829673 -18.62890625 363.75 C-17.46048767 366.25427408 -16.46871461 367.67951222 -14.375 369.4375 C0.10593527 342.47781666 5.90212147 310.17116148 13.80570984 280.85171509 C15.83369716 273.33694828 17.89160381 265.83117784 19.9765625 258.33203125 C24.70699655 241.28910838 29.3060206 224.24448766 33.25 207 C33.4128952 206.29137817 33.57579041 205.58275635 33.74362183 204.85266113 C37.36473006 189.29736079 37.36473006 189.29736079 38.625 173.4375 C33.345 172.1175 28.065 170.7975 22.625 169.4375 C22.295 171.0875 21.965 172.7375 21.625 174.4375 C18.40115849 180.28817533 14.57568583 183.33884038 8.3203125 185.66796875 C-3.54855228 188.84944782 -17.87082306 192.40881507 -29.375 186.4375 C-35.43901871 182.47393395 -39.64378048 176.70207443 -44.15234375 171.1472168 C-47.66900724 166.94981029 -51.25207972 164.16153737 -56.18359375 161.68359375 C-58.375 160.4375 -58.375 160.4375 -60.26953125 158.2890625 C-62.28118348 156.15587307 -62.28118348 156.15587307 -65.328125 156.15234375 C-66.41609375 156.22582031 -67.5040625 156.29929687 -68.625 156.375 C-76.67029113 156.6092414 -81.64190555 155.22802104 -87.90063477 149.86743164 C-90.25167661 147.58724418 -91.89158609 145.01883101 -93.625 142.25 C-94.18852173 141.3518457 -94.18852173 141.3518457 -94.76342773 140.43554688 C-98.72240564 134.03858197 -102.34243626 127.44951954 -105.9453125 120.84765625 C-107.82451857 117.40992009 -109.77695715 114.02444475 -111.76928711 110.65136719 C-117.41500519 101.03792354 -121.55453082 92.22416197 -118.75390625 80.93359375 C-116.31381218 74.00372658 -112.06220172 68.9857821 -107.375 63.4375 C-94.1538204 46.73587313 -81.84895656 29.25642661 -69.80078125 11.6953125 C-69.39956055 11.11112549 -68.99833984 10.52693848 -68.58496094 9.92504883 C-67.52343006 8.37543961 -66.46658466 6.8226235 -65.41015625 5.26953125 C-62.03847409 0.57765109 -58.8067049 -3.65204122 -53.875 -6.8125 C-52.77671875 -7.53179687 -52.77671875 -7.53179687 -51.65625 -8.265625 C-34.83952111 -17.82582019 -15.41656087 -7.80422366 0 0 Z " fill="#AC803D" transform="translate(673.375,195.5625)"/>
<path d="M0 0 C2.05639008 1.05520946 4.11237052 2.11121755 6.16796875 3.16796875 C12.80181311 6.56351502 19.54094765 9.70278061 26.3125 12.8125 C96.38660537 45.14051479 96.38660537 45.14051479 105.37670898 68.84594727 C106.68454162 72.60881171 107.80723362 76.39841252 108.859375 80.23828125 C109.17689224 81.39103546 109.17689224 81.39103546 109.50082397 82.56707764 C112.24695173 92.61577603 114.83968164 102.70418821 117.39160156 112.80371094 C117.96237826 115.053701 118.53820107 117.30241719 119.11914062 119.54980469 C122.97391726 134.46857342 125.95990811 149.12127275 127.625 164.4375 C127.76621277 165.71069092 127.90742554 166.98388184 128.05291748 168.2956543 C129.15927209 178.29700417 130.20600931 188.30432033 131.24117279 198.3132515 C131.67961474 202.54686893 132.12147585 206.78012961 132.56298828 211.01342773 C133.09248436 216.09252843 133.62153709 221.17167382 134.14865112 226.25102234 C135.14818856 235.88105511 136.15974308 245.50965008 137.1875 255.13671875 C141.33726206 294.08937803 141.33726206 294.08937803 142.46191406 312.75097656 C142.61357534 315.24930102 142.78578057 317.74542394 142.9609375 320.2421875 C147.24347691 386.80371095 144.32616404 468.38237987 114.625 529.4375 C114.07972656 530.58605469 113.53445313 531.73460937 112.97265625 532.91796875 C107.80468185 543.08296675 100.40757943 546.74271801 89.83569336 550.40332031 C86.96448187 551.27711226 84.08444555 552.09074402 81.1875 552.875 C80.11983398 553.16793945 79.05216797 553.46087891 77.95214844 553.76269531 C-17.31558789 579.35330429 -107.76322087 561.85252975 -214.1071167 521.33190918 C-216.43566541 520.41357474 -218.76670833 519.50179667 -221.09814453 518.59082031 C-225.00006188 517.06318109 -228.89345735 515.51544936 -232.78121948 513.95214844 C-234.23063204 513.37098793 -235.68184356 512.79428864 -237.13504028 512.22265625 C-246.13432694 508.67047747 -253.71817647 504.4421803 -261.375 498.4375 C-266.41980464 495.02987724 -271.02220138 492.92635354 -277.22070312 493.87133789 C-278.18943359 494.13164795 -279.15816406 494.39195801 -280.15625 494.66015625 C-281.23801514 494.94761719 -282.31978027 495.23507812 -283.43432617 495.53125 C-285.13745972 496.01078125 -285.13745972 496.01078125 -286.875 496.5 C-288.04973877 496.82871094 -289.22447754 497.15742187 -290.43481445 497.49609375 C-305.00319704 501.66454757 -316.18404799 507.4313467 -328.78149414 515.8347168 C-336.71645657 521.10413429 -344.72694629 525.48138941 -353.375 529.4375 C-397.92871868 549.434091 -397.92871868 549.434091 -430.42578125 584.09765625 C-432.81416884 588.18998368 -435.36267219 592.15958145 -437.95678711 596.12353516 C-439.90788956 599.1153088 -441.7962826 602.12325881 -443.5859375 605.21484375 C-443.93986572 605.8188501 -444.29379395 606.42285645 -444.65844727 607.04516602 C-445.63321269 608.71926492 -446.59247093 610.40236507 -447.55078125 612.0859375 C-448.45376953 613.24996094 -448.45376953 613.24996094 -449.375 614.4375 C-450.695 614.4375 -452.015 614.4375 -453.375 614.4375 C-455.55076354 576.24076229 -439.83817887 539.63255896 -415.05761719 511.41162109 C-408.67461597 504.31777617 -400.61234274 495.51661425 -391.375 492.4375 C-391.375 491.7775 -391.375 491.1175 -391.375 490.4375 C-401.75339211 485.24830394 -419.14271098 492.04278764 -429.375 495.4375 C-428.72438905 493.76450041 -428.05466676 492.09890763 -427.375 490.4375 C-427.15457031 489.78652344 -426.93414062 489.13554688 -426.70703125 488.46484375 C-424.72508595 485.44833463 -422.20703825 484.70034282 -418.9375 483.25 C-410.00953256 479.06089071 -403.01925116 473.28254473 -396.25 466.125 C-377.66315795 447.14128588 -349.75387387 432.65639855 -323.58251953 428.78808594 C-319.15820167 428.08544046 -314.77020945 427.17597481 -310.375 426.3125 C-292.71289581 422.84889467 -292.71289581 422.84889467 -286.9375 424.75 C-286.09316406 425.01425781 -285.24882812 425.27851562 -284.37890625 425.55078125 C-282.375 426.4375 -282.375 426.4375 -281.375 428.4375 C-282.09945312 428.67984375 -282.82390625 428.9221875 -283.5703125 429.171875 C-294.07926734 432.5879413 -294.07926734 432.5879413 -301.375 440.4375 C-301.375 443.76285714 -300.59146066 445.17053185 -298.5 447.75 C-297.48020183 448.67065113 -296.4347857 449.56317679 -295.375 450.4375 C-294.7253125 450.97761719 -294.075625 451.51773437 -293.40625 452.07421875 C-277.6382874 464.28415083 -258.79320607 473.07060153 -241.07617188 482.06591797 C-239.37659229 482.92891852 -237.67957846 483.79700962 -235.98632812 484.67236328 C-197.67696256 504.3923468 -154.90057771 518.32804781 -113.72167969 530.72998047 C-112.1057391 531.21718353 -110.49190626 531.71141459 -108.87988281 532.21142578 C-98.39913088 535.45642013 -87.89681095 538.08993064 -77.125 540.1875 C-76.10889648 540.38617676 -75.09279297 540.58485352 -74.04589844 540.78955078 C-58.60327498 543.66379984 -43.4961556 544.82160974 -27.8125 544.75 C-26.93494049 544.74751251 -26.05738098 544.74502502 -25.15322876 544.74246216 C-11.02378424 544.68077272 2.70094182 543.99644751 16.625 541.4375 C18.52185547 541.09090332 18.52185547 541.09090332 20.45703125 540.73730469 C38.92310049 537.31856252 57.25020822 533.2720195 75.51879883 528.92700195 C76.58202614 528.67711517 76.58202614 528.67711517 77.66673279 528.42218018 C79.57876037 527.97249282 81.4893873 527.51686168 83.39990234 527.06079102 C86.25128109 526.50972592 88.7347808 526.3061264 91.625 526.4375 C91.73606583 525.89172806 91.84713165 525.34595612 91.96156311 524.78364563 C93.14082652 519.21293749 94.68255812 513.87419166 96.49609375 508.48046875 C97.071982 506.73308272 97.64680408 504.98534505 98.22070312 503.23730469 C98.52113525 502.32412476 98.82156738 501.41094482 99.13110352 500.47009277 C127.64739396 413.36272956 134.35786605 330.20281953 123.625 239.4375 C123.4819342 238.22084656 123.33886841 237.00419312 123.19146729 235.75067139 C118.07663993 192.29784088 112.28839579 149.05350594 103.375 106.1875 C103.21418945 105.40912781 103.05337891 104.63075562 102.88769531 103.82879639 C101.01149421 94.8261742 98.77835574 86.0934359 95.625 77.4375 C95.21636719 76.27734375 94.80773437 75.1171875 94.38671875 73.921875 C86.38807362 53.56168739 66.21486416 45.2908456 47.625 36.4375 C45.67150253 35.49686689 43.71837687 34.55546123 41.765625 33.61328125 C34.40213294 30.06978929 27.02568717 26.55450904 19.62109375 23.09765625 C18.03882151 22.35728564 16.45678526 21.61641047 14.875 20.875 C14.11010254 20.51680176 13.34520508 20.15860352 12.55712891 19.78955078 C6.87489983 17.09961702 1.34388494 14.17300827 -4.1875 11.1875 C-15.69054957 5.00605374 -30.03424057 -2.52559316 -43.453125 0.98046875 C-55.05511884 5.84508428 -62.06952118 21.32005128 -68.66601562 31.49047852 C-73.27005978 38.5738249 -77.83039773 45.27020314 -83.60644531 51.47241211 C-86.32529702 54.49340016 -88.54080293 57.78491031 -90.75 61.1875 C-91.17410156 61.82042969 -91.59820313 62.45335937 -92.03515625 63.10546875 C-95.1290649 67.80001152 -97.69646111 71.95439733 -97.5 77.75 C-97.438125 79.5753125 -97.438125 79.5753125 -97.375 81.4375 C-95.73077655 81.54813933 -94.08422748 81.62425121 -92.4375 81.6875 C-91.52097656 81.73390625 -90.60445312 81.7803125 -89.66015625 81.828125 C-82.24227138 80.9460935 -77.06704581 77.82206679 -72.3671875 72.10693359 C-71.85414063 71.45289551 -71.34109375 70.79885742 -70.8125 70.125 C-69.70078399 68.77390225 -68.58492896 67.42619893 -67.46484375 66.08203125 C-66.93616699 65.44604004 -66.40749023 64.81004883 -65.86279297 64.15478516 C-63.01662554 60.86959617 -59.72718467 58.18019655 -56.375 55.4375 C-52.89489641 52.12311563 -49.81188577 48.62930392 -46.8046875 44.890625 C-45.375 43.4375 -45.375 43.4375 -42.375 42.4375 C-43.8046212 47.26991749 -45.88712084 51.51772779 -48.375 55.875 C-48.77090332 56.57383301 -49.16680664 57.27266602 -49.57470703 57.99267578 C-52.29322189 62.72316871 -55.1906873 67.29631372 -58.25 71.8125 C-62.07492654 77.46235682 -65.81509851 83.15515725 -69.4375 88.9375 C-69.91493652 89.67919434 -70.39237305 90.42088867 -70.88427734 91.18505859 C-73.60878795 95.57946261 -75.28510687 99.12738453 -75.375 104.4375 C-74.61921204 106.75843643 -74.61921204 106.75843643 -73.1875 108.625 C-72.72085937 109.29015625 -72.25421875 109.9553125 -71.7734375 110.640625 C-68.00470031 115.49631069 -68.00470031 115.49631069 -62.375 117.4375 C-62.17777344 116.78910156 -61.98054688 116.14070313 -61.77734375 115.47265625 C-59.76854332 111.12491826 -56.89671072 107.6204839 -53.9375 103.875 C-53.31149902 103.07650635 -52.68549805 102.2780127 -52.04052734 101.45532227 C-47.5345878 95.76472525 -42.83333779 90.34599784 -37.8515625 85.0703125 C-34.80420191 81.83068941 -31.91223792 78.46963357 -29.03125 75.08203125 C-27.375 73.4375 -27.375 73.4375 -24.375 72.4375 C-24.92797406 77.43366914 -27.25565116 81.04449886 -29.8125 85.25 C-30.25843506 85.99628662 -30.70437012 86.74257324 -31.16381836 87.51147461 C-34.18869564 92.54975099 -37.30345111 97.52921825 -40.4375 102.5 C-43.83674466 107.91918301 -47.20284825 113.35568393 -50.4375 118.875 C-50.8197876 119.50092041 -51.2020752 120.12684082 -51.59594727 120.77172852 C-54.27900611 125.43430497 -55.58413932 130.01355969 -55.375 135.4375 C-53.27717455 139.7945221 -50.91847581 142.62010968 -46.375 144.4375 C-42.08559258 143.1811882 -40.13539077 139.70411191 -37.75 136.1875 C-36.86078188 134.9113853 -35.97145599 133.63534569 -35.08203125 132.359375 C-34.40648193 131.38000977 -34.40648193 131.38000977 -33.71728516 130.38085938 C-28.15803514 122.33218165 -22.4461772 114.40737655 -16.4375 106.6875 C-15.74636108 105.79224609 -15.74636108 105.79224609 -15.04125977 104.87890625 C-12.94868705 102.2195063 -11.21656591 100.33187728 -8.375 98.4375 C-7.715 99.0975 -7.055 99.7575 -6.375 100.4375 C-6.63473491 106.69164324 -8.38667793 111.61540565 -11 117.25 C-11.38099854 118.08660156 -11.76199707 118.92320312 -12.15454102 119.78515625 C-17.45060684 131.11617862 -23.72044979 141.96451358 -29.91381836 152.82226562 C-31.13204265 155.00265302 -32.28311814 157.19195045 -33.375 159.4375 C-26.45359762 164.99259957 -20.7574874 169.04464692 -11.5859375 168.25 C-4.86750096 165.78103392 -1.52475139 158.15307882 1.9375 152.375 C3.08315839 150.49389131 4.23028902 148.61367846 5.37890625 146.734375 C6.20865967 145.3740918 6.20865967 145.3740918 7.05517578 143.98632812 C10.09590026 139.04928869 13.18394136 134.10612731 16.625 129.4375 C16.955 129.4375 17.285 129.4375 17.625 129.4375 C17.23520794 135.99675943 16.20386807 141.38276627 13.625 147.4375 C24.29065122 158.05048133 34.57347715 161.70450475 49.40063477 161.75878906 C60.39840235 161.59587548 70.40541429 158.15359649 80.55078125 154.07421875 C82.625 153.4375 82.625 153.4375 84.625 154.4375 C76.49877571 165.34770853 69.94805236 169.80873631 56.625 172.4375 C54.95845533 172.45766536 53.29150818 172.46048392 51.625 172.4375 C51.50835999 173.23223221 51.39171997 174.02696442 51.27154541 174.84577942 C50.11715197 182.54949541 48.7660173 190.18726993 47.234375 197.82421875 C47.00727844 198.96494339 46.78018188 200.10566803 46.54620361 201.28096008 C46.06691738 203.68377094 45.58616495 206.08628976 45.10400391 208.48852539 C44.38599413 212.07015824 43.67511153 215.65315305 42.96484375 219.23632812 C40.42689854 231.96193337 37.70138731 244.62235527 34.73352051 257.25457764 C32.70003789 265.96250464 30.97378337 274.70508396 29.32650757 283.49255371 C23.31179824 315.23005477 14.58911627 345.93959503 0.9296875 375.296875 C0.50888916 376.2031665 0.08809082 377.10945801 -0.34545898 378.04321289 C-1.12276206 379.69215573 -1.91752548 381.33305435 -2.73461914 382.96264648 C-6.48949029 390.78681051 -6.1214225 397.19526831 -3.39306641 405.32446289 C-3.11897949 406.10426514 -2.84489258 406.88406738 -2.5625 407.6875 C-2.00825131 409.35692572 -1.45747443 411.02750805 -0.91015625 412.69921875 C-0.64477051 413.50665527 -0.37938477 414.3140918 -0.10595703 415.14599609 C2.58713896 423.58868111 4.16543803 431.5703131 3.625 440.4375 C0.72561061 437.53811061 -0.202962 433.89855836 -1.625 430.125 C-11.93040347 403.63482825 -25.2006006 377.21067473 -40.30273438 353.14941406 C-41.40733401 351.38587749 -42.49276736 349.61136821 -43.578125 347.8359375 C-50.44782499 336.72947116 -58.1374215 326.68025622 -68.375 318.4375 C-69.24125 317.70789063 -70.1075 316.97828125 -71 316.2265625 C-73.75929159 313.91948815 -76.5514444 311.66533433 -79.375 309.4375 C-80.43460938 308.59832031 -80.43460938 308.59832031 -81.515625 307.7421875 C-91.87205155 300.19227349 -104.76860878 296.62113175 -117.375 295.4375 C-118.23270996 295.3535498 -119.09041992 295.26959961 -119.97412109 295.18310547 C-140.36369315 293.31001249 -160.36033123 294.41953588 -180.61132812 297.09570312 C-186.18074498 297.78450026 -191.77188705 298.14206314 -197.375 298.4375 C-194.44381777 294.25009681 -191.83271083 292.3833248 -187.1875 290.3125 C-184.02403649 288.95202166 -184.02403649 288.95202166 -181.375 287.4375 C-179.99740191 284.42043793 -179.99740191 284.42043793 -181.640625 281.5390625 C-182.286537 280.37147191 -182.94928932 279.21310209 -183.625 278.0625 C-183.98634033 277.4425415 -184.34768066 276.82258301 -184.7199707 276.18383789 C-188.87502732 269.29258853 -193.90596028 263.31525799 -199.375 257.4375 C-199.88724121 256.88674805 -200.39948242 256.33599609 -200.92724609 255.76855469 C-208.45436755 247.77519243 -216.4304912 240.79458278 -225.375 234.4375 C-225.93348633 234.03466797 -226.49197266 233.63183594 -227.06738281 233.21679688 C-267.78247945 204.0719007 -317.67996107 193.37478904 -366.7890625 201.28515625 C-376.81520492 203.00343795 -386.04111121 205.29422014 -395.375 209.4375 C-396.66943771 209.97151006 -397.96508119 210.50260382 -399.26171875 211.03125 C-420.03325757 219.62363243 -436.32455947 233.03085307 -452.375 248.4375 C-453.375 245.4375 -453.375 245.4375 -452.14453125 242.57421875 C-435.54191438 213.31252075 -407.73814255 194.40614349 -375.70019531 185.078125 C-326.973912 171.65332792 -274.98659052 178.62306337 -231.0234375 203.3203125 C-228.40239491 204.94430142 -225.88107608 206.64174484 -223.375 208.4375 C-222.44171875 209.10007812 -221.5084375 209.76265625 -220.546875 210.4453125 C-204.71768879 222.00641971 -190.53224249 235.02890197 -178.375 250.4375 C-177.46679786 251.56693087 -176.55791595 252.69581538 -175.6484375 253.82421875 C-170.36896677 260.41490079 -165.46636183 267.07334012 -160.93359375 274.20703125 C-159.56716733 276.54016919 -159.56716733 276.54016919 -157.375 277.4375 C-154.60135687 277.69949683 -151.84186508 277.91037423 -149.0625 278.0859375 C-147.328108 278.20548281 -145.5937336 278.32528361 -143.859375 278.4453125 C-141.14408846 278.62846352 -138.428693 278.80903339 -135.71289062 278.984375 C-104.60946799 281.01336032 -104.60946799 281.01336032 -90.125 286.125 C-89.38741455 286.38063721 -88.6498291 286.63627441 -87.88989258 286.8996582 C-74.93551695 291.59266438 -64.4176708 299.14011089 -54.375 308.4375 C-53.85131836 308.91735352 -53.32763672 309.39720703 -52.78808594 309.89160156 C-36.77817839 324.71191846 -26.58187865 343.61829673 -18.62890625 363.75 C-17.46048767 366.25427408 -16.46871461 367.67951222 -14.375 369.4375 C0.10593527 342.47781666 5.90212147 310.17116148 13.80570984 280.85171509 C15.83369716 273.33694828 17.89160381 265.83117784 19.9765625 258.33203125 C24.70699655 241.28910838 29.3060206 224.24448766 33.25 207 C33.4128952 206.29137817 33.57579041 205.58275635 33.74362183 204.85266113 C37.36473006 189.29736079 37.36473006 189.29736079 38.625 173.4375 C30.705 171.4575 30.705 171.4575 22.625 169.4375 C22.295 171.0875 21.965 172.7375 21.625 174.4375 C18.40115849 180.28817533 14.57568583 183.33884038 8.3203125 185.66796875 C-3.54855228 188.84944782 -17.87082306 192.40881507 -29.375 186.4375 C-35.43901871 182.47393395 -39.64378048 176.70207443 -44.15234375 171.1472168 C-47.66900724 166.94981029 -51.25207972 164.16153737 -56.18359375 161.68359375 C-58.375 160.4375 -58.375 160.4375 -60.26953125 158.2890625 C-62.28118348 156.15587307 -62.28118348 156.15587307 -65.328125 156.15234375 C-66.41609375 156.22582031 -67.5040625 156.29929687 -68.625 156.375 C-76.67029113 156.6092414 -81.64190555 155.22802104 -87.90063477 149.86743164 C-90.25167661 147.58724418 -91.89158609 145.01883101 -93.625 142.25 C-94.18852173 141.3518457 -94.18852173 141.3518457 -94.76342773 140.43554688 C-98.72240564 134.03858197 -102.34243626 127.44951954 -105.9453125 120.84765625 C-107.82451857 117.40992009 -109.77695715 114.02444475 -111.76928711 110.65136719 C-117.41500519 101.03792354 -121.55453082 92.22416197 -118.75390625 80.93359375 C-116.31381218 74.00372658 -112.06220172 68.9857821 -107.375 63.4375 C-94.1538204 46.73587313 -81.84895656 29.25642661 -69.80078125 11.6953125 C-69.39956055 11.11112549 -68.99833984 10.52693848 -68.58496094 9.92504883 C-67.52343006 8.37543961 -66.46658466 6.8226235 -65.41015625 5.26953125 C-62.03847409 0.57765109 -58.8067049 -3.65204122 -53.875 -6.8125 C-52.77671875 -7.53179687 -52.77671875 -7.53179687 -51.65625 -8.265625 C-34.83952111 -17.82582019 -15.41656087 -7.80422366 0 0 Z " fill="#987034" transform="translate(673.375,195.5625)"/>
<path d="M0 0 C1.03218193 0.86112096 2.06476844 1.72175709 3.09765625 2.58203125 C5.37843957 4.4894691 7.64345159 6.41370957 9.8984375 8.3515625 C11.65354211 9.85970711 13.41585791 11.33122718 15.2265625 12.7734375 C37.96927434 31.21094463 51.17967075 64.26689609 64 90 C64.80123291 91.60657471 64.80123291 91.60657471 65.61865234 93.24560547 C84.92813004 132.1992666 84.92813004 132.1992666 82 143 C81.45811035 141.86908936 81.45811035 141.86908936 80.90527344 140.71533203 C72.16644374 122.39330256 72.16644374 122.39330256 61.75 105 C61.31655273 104.3517627 60.88310547 103.70352539 60.43652344 103.03564453 C57.62101972 98.98227219 54.52262241 95.2512599 51.3125 91.50390625 C45.84566675 85.06788819 41.24338356 78.14490942 36.64297485 71.07528687 C34.25950863 67.41740117 31.84696348 63.7788257 29.43359375 60.140625 C28.96209396 59.42952072 28.49059418 58.71841644 28.00480652 57.98576355 C19.27457295 44.85801945 10.1519465 32.18685087 -1 21 C-1.71027344 20.26652344 -2.42054688 19.53304687 -3.15234375 18.77734375 C-24.25149619 -1.61457453 -57.67029571 -3.22424285 -85.375 -3.125 C-86.03065948 -3.12411377 -86.68631897 -3.12322754 -87.36184692 -3.12231445 C-102.25254846 -3.09899974 -117.12254842 -2.60376922 -132 -2 C-132.33 -2.66 -132.66 -3.32 -133 -4 C-122.65225511 -9.64563062 -113.14354513 -12.40814755 -101.44726562 -13.72363281 C-99.06950342 -13.99215105 -96.70002643 -14.30153143 -94.328125 -14.6171875 C-64.88185316 -18.28960433 -24.13923815 -20.52480677 0 0 Z " fill="#BC8E48" transform="translate(595,505)"/>
<path d="M0 0 C48.28999151 -1.40950162 95.63230267 18.28821137 130.7890625 50.828125 C131.60117187 51.59640625 132.41328125 52.3646875 133.25 53.15625 C134.14460937 53.98640625 135.03921875 54.8165625 135.9609375 55.671875 C144.42780191 63.7829888 155.89283549 75.69393119 159.25 87.15625 C158.43325755 90.03118344 157.46864918 91.00464308 155.0078125 92.7109375 C154.13898438 93.14664063 153.27015625 93.58234375 152.375 94.03125 C151.51132812 94.48242188 150.64765625 94.93359375 149.7578125 95.3984375 C147.25 96.15625 147.25 96.15625 145.26904297 95.44482422 C142.94723205 93.96302034 141.92155598 92.60742613 140.4375 90.296875 C139.92558105 89.51763672 139.41366211 88.73839844 138.88623047 87.93554688 C138.34627441 87.10087891 137.80631836 86.26621094 137.25 85.40625 C131.47933933 76.74128059 125.31075078 68.79833189 118.25 61.15625 C116.92935547 59.71185547 116.92935547 59.71185547 115.58203125 58.23828125 C104.22226903 46.3415731 90.77097538 37.68706572 76.25 30.15625 C75.26507568 29.63635498 75.26507568 29.63635498 74.26025391 29.10595703 C51.94551845 17.45325363 26.48756924 11.02064403 1.30859375 10.98828125 C0.38264908 10.98495285 -0.54329559 10.98162445 -1.49729919 10.97819519 C-3.44782011 10.97316144 -5.39834954 10.97078576 -7.34887695 10.97094727 C-10.28026138 10.9687739 -13.21126069 10.95061595 -16.14257812 10.93164062 C-26.0480512 10.90290996 -35.65078627 11.23842575 -45.45288086 12.71313477 C-49.90210629 13.31108694 -54.27163199 13.35002554 -58.75 13.15625 C-44.50857235 1.20176693 -17.613372 0.7338905 0 0 Z " fill="#BC8E48" transform="translate(334.75,392.84375)"/>
<path d="M0 0 C2 2 2 2 2.06884766 5.50439453 C1.98918307 7.00631682 1.8948546 8.50750418 1.7890625 10.0078125 C1.73738922 10.81276154 1.68571594 11.61771057 1.63247681 12.447052 C1.0239154 21.00033309 -0.22486867 29.42086106 -1.625 37.875 C-1.7572699 38.68702881 -1.88953979 39.49905762 -2.02581787 40.33569336 C-2.98680143 46.22911725 -3.98510009 52.11564574 -5 58 C-5.12955078 58.75704224 -5.25910156 59.51408447 -5.39257812 60.29406738 C-12.22851401 100.11558495 -21.37865447 141.62925451 -37 179 C-37.66 179 -38.32 179 -39 179 C-40.01749813 176.19279534 -41.01394649 173.38074755 -42 170.5625 C-42.28617188 169.77939453 -42.57234375 168.99628906 -42.8671875 168.18945312 C-46.75718621 156.93624257 -44.72026789 150.21115024 -39.625 139.625 C-38.51184553 137.21096583 -37.40370644 134.79542412 -36.3046875 132.375 C-36.02492065 131.76097321 -35.74515381 131.14694641 -35.45690918 130.51431274 C-23.83442942 104.82697862 -16.39540793 77.73359882 -11.29907227 50.0703125 C-9.35551484 39.56702905 -7.08551591 29.15849516 -4.6875 18.75 C-4.51033447 17.97799255 -4.33316895 17.20598511 -4.15063477 16.4105835 C-1.21929209 3.65787628 -1.21929209 3.65787628 0 0 Z " fill="#BC8E48" transform="translate(712,433)"/>
<path d="M0 0 C1.24869873 -0.00563965 2.49739746 -0.0112793 3.78393555 -0.01708984 C10.53969475 0.03629391 16.59943855 0.54369231 23.125 2.3125 C19.8613726 4.4882516 17.42287952 5.17147256 13.625 6.125 C12.94211914 6.29676758 12.25923828 6.46853516 11.55566406 6.64550781 C6.98431249 7.75030052 2.40463403 8.62986468 -2.234375 9.40234375 C-33.84179676 14.6804499 -60.61974097 28.06483452 -83.875 50.3125 C-100.21882836 65.80428044 -100.21882836 65.80428044 -109.875 66.3125 C-105.76127255 60.47635821 -101.15995058 55.22070765 -96.3203125 49.9765625 C-94.27313626 47.74625228 -92.28158169 45.48628839 -90.3125 43.1875 C-74.0222249 24.64511314 -53.52474906 10.62308704 -29.875 3.3125 C-28.23144531 2.80203125 -28.23144531 2.80203125 -26.5546875 2.28125 C-17.75896824 0.07721826 -9.02900875 0.03933719 0 0 Z " fill="#BC8E48" transform="translate(358.875,614.6875)"/>
<path d="M0 0 C1.64440063 0.80727539 1.64440063 0.80727539 3.32202148 1.63085938 C6.47052466 3.17994984 9.61118981 4.74388421 12.75 6.3125 C14.19376664 7.02783597 15.63774117 7.74275271 17.08203125 8.45703125 C20.24318759 10.02604273 23.39625196 11.61064229 26.546875 13.20068359 C31.13240775 15.51479221 35.72153986 17.82167931 40.3125 20.125 C41.32739502 20.63514648 42.34229004 21.14529297 43.38793945 21.67089844 C49.55955367 24.75986449 55.76981121 27.74615494 62.02246094 30.66723633 C95.45980787 46.33585208 95.45980787 46.33585208 101.75 61.3125 C101.42 62.3025 101.09 63.2925 100.75 64.3125 C100.27433594 63.70664062 99.79867187 63.10078125 99.30859375 62.4765625 C82.45556593 42.30258813 55.08207229 33.0842427 31.56274414 23.0838623 C26.82782772 21.06905174 22.09907909 19.04007951 17.375 17 C16.4466333 16.59910156 15.5182666 16.19820312 14.56176758 15.78515625 C8.25474457 13.03473369 2.0666263 10.10010527 -4.03076172 6.91088867 C-14.7386162 1.35040791 -24.40971358 -1.38621382 -36.25390625 2.328125 C-38.58319368 3.26964674 -38.58319368 3.26964674 -40.25 6.3125 C-38.4246875 6.18875 -38.4246875 6.18875 -36.5625 6.0625 C-33.1773826 6.05049604 -32.31131766 6.27336107 -29.3125 8.1875 C-26.48043667 11.10538343 -26.25932514 11.7716417 -26.1875 15.9375 C-26.208125 17.05125 -26.22875 18.165 -26.25 19.3125 C-27.24 19.8075 -27.24 19.8075 -28.25 20.3125 C-28.58 19.24 -28.91 18.1675 -29.25 17.0625 C-30.97025057 13.01581533 -33.30050678 11.72519633 -37.2421875 10.0234375 C-39.5583308 9.2033245 -41.81012076 8.61748491 -44.25 8.3125 C-44.52529541 8.90691895 -44.80059082 9.50133789 -45.08422852 10.11376953 C-46.1943193 12.20748213 -47.32848721 13.73447305 -48.90234375 15.4921875 C-49.42658936 16.08499512 -49.95083496 16.67780273 -50.4909668 17.28857422 C-51.05082275 17.91521973 -51.61067871 18.54186523 -52.1875 19.1875 C-57.28875655 24.96744609 -62.15417097 30.87187056 -66.82202148 37.00732422 C-70.04880522 41.21190261 -70.04880522 41.21190261 -72.25 42.3125 C-71.70764782 38.04802958 -70.30461513 35.64793593 -67.6953125 32.265625 C-62.49897752 25.35725634 -57.79901227 18.15755879 -53.07421875 10.921875 C-38.02086958 -11.90564096 -24.2180357 -12.14027793 0 0 Z " fill="#BB8E48" transform="translate(665.25,203.6875)"/>
<path d="M0 0 C2.125 1.625 2.125 1.625 3.125 3.625 C3.19533769 5.49879605 3.2093022 7.37501102 3.1875 9.25 C3.17847656 10.25289062 3.16945313 11.25578125 3.16015625 12.2890625 C3.14855469 13.05992187 3.13695312 13.83078125 3.125 14.625 C2.83109375 14.02816406 2.5371875 13.43132812 2.234375 12.81640625 C-0.626756 7.16466508 -2.94850891 4.09437129 -8.875 1.625 C-10.20833333 0.95833333 -11.54166667 0.29166667 -12.875 -0.375 C-8.2614754 -1.91284153 -4.43778431 -2.12241859 0 0 Z " fill="#BB8D47" transform="translate(656.875,236.375)"/>
</svg>
